<svg xmlns="http://www.w3.org/2000/svg" viewBox="0 0 281 283"><path d="M189.4 101.4c1.7-1.5 2.6-3.5 2.6-5.8 0-2.1-.7-3.9-2.1-5.2-1.1-1.1-2.8-2.1-5.2-3.1-2.2-.9-3.6-1.7-4.3-2.4-.8-.7-1.1-1.7-1.1-2.9s.5-2.1 1.4-2.9c.9-.7 2.1-1.1 3.6-1.1 2.4 0 4.6.7 6.5 2v-4.6c-1.8-.9-3.8-1.3-6.1-1.3-2.9 0-5.4.8-7.2 2.4-1.9 1.6-2.8 3.5-2.8 5.9 0 2.1.6 3.8 1.8 5.1 1 1.1 2.7 2.2 5.1 3.2 2.3 1 3.9 1.9 4.7 2.6.8.7 1.2 1.6 1.2 2.7 0 2.6-1.8 4-5.4 4-2.7 0-5.2-.9-7.4-2.7v4.9c2 1.1 4.4 1.7 7.1 1.7 3.1 0 5.7-.8 7.6-2.5zM232.2 103.2h4.6V78.7h6.7v-3.9h-6.7v-4.4c0-4 1.6-6 4.8-6 1.1 0 2.1.3 3 .7V61c-.8-.3-1.9-.5-3.3-.5-2.4 0-4.5.8-6.1 2.3-2 1.8-2.9 4.2-2.9 7.4v4.6h-4.8v3.9h4.8v24.5zM87.1 67.6c.8 0 1.5-.3 2.1-.9.6-.6.9-1.3.9-2.1s-.3-1.5-.9-2.1c-.6-.6-1.3-.8-2.1-.8s-1.5.3-2.1.8c-.6.6-.9 1.3-.9 2.1 0 .9.3 1.6.9 2.1.6.6 1.3.9 2.1.9zM109.9 103.9c3 0 5.6-.7 7.8-2v-4.3c-2.2 1.6-4.5 2.4-7 2.4-2.9 0-5.3-1-7-2.9-1.7-1.9-2.6-4.5-2.6-7.9 0-3.4 1-6.2 2.9-8.3 1.8-2 4.2-3 7.1-3 2.4 0 4.7.7 6.8 2.2v-4.7c-1.9-1-4.1-1.4-6.6-1.4-4.5 0-8.1 1.4-10.8 4.3-2.7 2.9-4 6.6-4 11.3 0 4.2 1.2 7.5 3.7 10.2 2.3 2.8 5.6 4.1 9.7 4.1zM250.8 95.5c0 5.6 2.5 8.4 7.4 8.4 1.8 0 3.2-.3 4.3-.9v-3.9c-.8.6-1.8.9-2.9.9-1.5 0-2.6-.4-3.3-1.2-.7-.8-1-2.2-1-4.1v-16h7.2v-3.9h-7.2v-8.4c-1.6.5-3.1 1-4.6 1.5v6.9h-4.9v3.9h4.9v16.8zM84.8 74.8h4.5v28.4h-4.5zM155.3 103.9c4.3 0 7.8-1.4 10.3-4.1 2.5-2.7 3.8-6.4 3.8-10.9 0-4.6-1.2-8.2-3.6-10.9-2.4-2.6-5.7-3.9-9.9-3.9-4.3 0-7.7 1.3-10.3 3.8-2.8 2.7-4.2 6.5-4.2 11.5 0 4.3 1.2 7.8 3.7 10.5s5.9 4 10.2 4zm-6.5-23.1c1.7-1.8 4-2.8 6.8-2.8 2.9 0 5.1.9 6.7 2.7 1.6 1.9 2.5 4.7 2.5 8.3 0 3.5-.8 6.2-2.3 8.1-1.6 1.9-3.9 2.9-6.9 2.9-2.9 0-5.2-1-6.9-2.9-1.7-1.9-2.6-4.6-2.6-8 0-3.5.9-6.3 2.7-8.3zM220.7 99.8c2.6-2.7 3.8-6.4 3.8-10.9 0-4.6-1.2-8.2-3.6-10.9-2.4-2.6-5.7-3.9-9.9-3.9-4.3 0-7.8 1.3-10.3 3.8-2.8 2.7-4.2 6.5-4.2 11.5 0 4.3 1.2 7.8 3.7 10.5s5.9 4.1 10.2 4.1c4.3-.1 7.7-1.4 10.3-4.2zm-19.5-10.6c0-3.6.9-6.4 2.7-8.4 1.7-1.8 4-2.8 6.8-2.8 2.9 0 5.1.9 6.7 2.7 1.6 1.9 2.5 4.7 2.5 8.3 0 3.5-.8 6.2-2.3 8.1-1.6 1.9-3.9 2.9-6.9 2.9-2.9 0-5.2-1-6.9-2.9-1.8-1.8-2.6-4.5-2.6-7.9zM153.7 173.2h37.7v-11h-37.7v-34.8h40.7v-11h-52.9v104.4h55.3v-11.1h-43.1zM208.3 127.4h30.2v93.4h12.2v-93.4h30.1v-11h-72.5zM8.2 206c-2.2 0-4.1.8-5.7 2.4-1.6 1.6-2.3 3.5-2.3 5.8 0 2.2.8 4.2 2.3 5.8 1.6 1.6 3.4 2.4 5.7 2.4 2.3 0 4.2-.8 5.8-2.4 1.6-1.6 2.4-3.6 2.4-5.8 0-2.2-.8-4.2-2.4-5.8-1.5-1.6-3.5-2.4-5.8-2.4zM132.3 75.9c-1.4 1.1-2.4 2.7-3.1 4.8h-.1v-5.9h-4.5v28.4h4.5V88.7c0-3.3.7-5.9 2.1-7.7 1.3-1.7 2.8-2.5 4.7-2.5 1.5 0 2.7.3 3.5.9v-4.7c-.6-.3-1.5-.4-2.7-.4-1.6 0-3.1.5-4.4 1.6zM38.6 68.8h.1l14.8 34.4h2.3l14.7-34.4h.1l-.3 34.4h4.6V63.4h-5.8L54.7 96h-.2l-14-32.6h-6.2v39.8h4.5zM106.2 204.6l-56-88.2H34.3v104.4h12.2v-89.6l57 89.6h14.9V116.4h-12.2z" stroke="none" /></svg>