<svg xmlns="http://www.w3.org/2000/svg" viewBox="0 0 693 153"><defs><linearGradient id="a" x1="22.161%" y1="7%" x2="80.082%" y2="91%"><stop stop-color="#3faced" offset="0%"/><stop stop-color="#2cbe8e" offset="50.556%"/><stop stop-color="#54d035" offset="100%"/></linearGradient><linearGradient id="b" x1="0%" y1=".676%" x2="92.12%" y2="135.251%"><stop stop-color="#2d8bc4" offset="0%"/><stop stop-color="#4066b1" offset="100%"/></linearGradient></defs><path id="so" d="M570 76.5c0-23.472 19.251-42.5 43-42.5s43 19.028 43 42.5-19.251 42.5-43 42.5-43-19.028-43-42.5zm-35-.5c0 41.974 35.369 76 79 76s79-34.026 79-76-35.369-76-79-76-79 34.026-79 76zm66.226-13.226l-11.293 37.656 37.296-11.163 10.705-37.333-36.708 10.84zM524 19S509.75 1 475 1s-49 27.25-49 46 12.5 38.5 40 45 23.25 15 21 20-20.25 17.5-44-5l-23 26s17.75 19 54 19 51-21.5 51-50-22.25-37-43-44-22.25-15.5-15-22 30-1.5 36 8l21-25z" /><path id="free" d="M329.5 93.75C329.5 75.25 343.75 65 356 65s13 4 13 4l-39.5 24.75zM357 36s-59-.25-59 58 61 58 61 58 23.5 0 44-17l-17-26s-19.25 21.25-48 5l70-44s-14.5-34-51-34zM212.5 93.75C212.5 75.25 226.75 65 239 65s13 4 13 4l-39.5 24.75zM240 36s-59-.25-59 58 61 58 61 58 23.5 0 44-17l-17-26s-19.25 21.25-48 5l70-44s-14.5-34-51-34zM94 152h35V91s-.333-19 19-19c6.275 0 10.48 2 13.295 4.705l24.95-24.95C180.345 44.417 171.943 39 160 39c0 0-24.333-2-33 17V38l-33 4v110zm-94 0h37V98h28l10-32H37V35h47l9-31H0v148z" /></svg>