<svg xmlns="http://www.w3.org/2000/svg" viewBox="0 0 288 288"><path stroke="none" d="M282.4 70.7c-.7-.5-1.6-.6-2.3-.2l-129.4 52.1c-.9.4-1.6 1.3-1.6 2.3v155.5c0 .8.4 1.6 1.1 2.1.4.3.9.4 1.4.4.3 0 .6-.1.9-.2L282 230.6c.9-.4 1.6-1.3 1.6-2.3V72.8c-.1-.8-.5-1.6-1.2-2.1zm-22.2 153.9l-97.4 39.2V185l97.4 39.6zm-97.4-51.3v-40.8l107.1-43.1v127.5l-107.1-43.6zM137.3 122.6L7.9 70.5c-.8-.3-1.6-.2-2.3.2-.7.5-1.1 1.2-1.1 2.1v155.5c0 1 .6 1.9 1.6 2.3l129.4 52.1c.3.1.6.2.9.2.5 0 1-.1 1.4-.4.7-.5 1.1-1.2 1.1-2.1V124.9c0-1-.6-2-1.6-2.3zM18.1 220.2V89.3l107.1 43.1V173L18.1 220.2zm107.1-35.3v78.9l-93.7-37.7 93.7-41.2zM280 59.5c0-1-.6-1.9-1.6-2.3L145.5 5.3c-.6-.2-1.3-.2-1.8 0L14.2 57.4c-1 .4-1.6 1.3-1.6 2.3 0 1 .6 1.9 1.6 2.3L142 113.9c.3.1.6.2.9.2.3 0 .6-.1.9-.2l134.6-52.1c.9-.3 1.6-1.2 1.6-2.3zM147.2 98V20.7l99.5 38.8L147.2 98zm-10.9-75v73.9L44.9 59.8 136.3 23z"/></svg>