<svg xmlns="http://www.w3.org/2000/svg" viewBox="0 0 288 288"><path d="M271.5 126.6V91.8c0-41.5-33.8-75.3-75.3-75.3-20.3 0-38.7 8.1-52.2 21.1-13.5-13.1-32-21.1-52.2-21.1-41.5 0-75.3 33.8-75.3 75.3v104.5c0 41.5 33.8 75.3 75.3 75.3h104.5c41.5 0 75.3-33.8 75.3-75.3v-50.6H121v46.1h104.5v4.5c0 16.1-13.1 29.2-29.2 29.2H91.8c-16.1 0-29.2-13.1-29.2-29.2V91.8c0-16.1 13.1-29.2 29.2-29.2S121 75.7 121 91.8v34.8h46V91.8c0-16.1 13.1-29.2 29.2-29.2s29.2 13.1 29.2 29.2v34.8h46.1z" fill="none" stroke-width="10" stroke-miterlimit="10"/></svg>