<svg xmlns="http://www.w3.org/2000/svg" viewBox="0 0 288 288"><path d="M143.983 2.967c-16.582 0-29.988 13.406-29.988 29.989v79.348h-6.432v6.432h6.432v85.703c0 16.582 13.406 29.988 29.988 29.988 16.583 0 29.989-13.406 29.989-29.988v-85.703h6.431v-6.432h-6.431v-79.27c0-16.584-13.406-30.067-29.989-30.067zm0 13.948v95.39h-18.21v-77.18c0-10.073 8.137-18.21 18.21-18.21zm-45.02 11.779l-38.203.775 31.383 20.534.698-.232v.31l6.121-21.387zM92.84 50.158l-.078.31-.62-.387-35.8 11.08 35.8 11.082.62-.388.078.233v-21.93zm0 21.93v.31l-.698-.233L60.76 92.7l38.202.774-6.121-21.386zm96.163-43.394l6.122 21.464v-.31l.697.233 31.383-20.535-38.202-.852zm6.82 21.31l-.62.387-.078-.233v21.93l.078-.233.62.388 35.8-11.081-35.8-11.159zm0 22.161l-.698.232v-.31l-6.122 21.387 38.202-.774-31.383-20.535zm-60.907-22.007a6.416 6.416 0 0 0-6.431 6.432 6.416 6.416 0 0 0 6.431 6.431 6.416 6.416 0 0 0 6.432-6.431 6.416 6.416 0 0 0-6.432-6.432zm18.21 0a6.416 6.416 0 0 1 6.432 6.432 6.416 6.416 0 0 1-6.432 6.431 6.416 6.416 0 0 1-6.432-6.431 6.416 6.416 0 0 1 6.432-6.432zm-18.21 17.125a6.416 6.416 0 0 0-6.431 6.432 6.416 6.416 0 0 0 6.431 6.431 6.416 6.416 0 0 0 6.432-6.431 6.416 6.416 0 0 0-6.432-6.432zm18.21 0a6.416 6.416 0 0 1 6.432 6.432 6.416 6.416 0 0 1-6.432 6.431 6.416 6.416 0 0 1-6.432-6.431 6.416 6.416 0 0 1 6.432-6.432zm-18.21 17.125a6.416 6.416 0 0 0-6.431 6.432v.62c.31 3.254 3.1 5.811 6.431 5.811 3.332 0 6.122-2.557 6.354-5.811v-.62c.078-3.565-2.79-6.432-6.354-6.432zm18.21 0a6.416 6.416 0 0 1 6.432 6.432v.62c-.31 3.254-3.022 5.811-6.355 5.811-3.332 0-6.121-2.557-6.431-5.811v-.62c-.078-3.565 2.79-6.432 6.354-6.432zm-59.512 27.896v93.22c0 27.818 22.55 50.367 50.368 50.367s50.368-22.549 50.368-50.367v-93.22h-6.431v93.22c0 24.254-19.683 43.936-43.937 43.936-24.254 0-43.936-19.682-43.936-43.936v-93.22h-6.432zm50.368 6.432h18.21v64.16h-.077l.077.156v18.21l-.232 2.867-17.978-21.31h18.133l-18.133-21.31h18.133l-18.133-21.386h18.21l-18.21-21.387zm17.978 85.47v.078c-.698 4.417-3.022 8.291-6.354 11.003l-11.624-11.08h17.978zm-44.711 63.619v17.125h53.544v-17.125H117.25z" stroke="none" /></svg>