<svg xmlns="http://www.w3.org/2000/svg" viewBox="0 0 18 18"><path d="M17 7v4h-2.367a5.918 5.918 0 0 1-.343.775L16 13.491 13.491 16l-1.715-1.71a5.918 5.918 0 0 1-.775.343V17H7v-2.367a5.917 5.917 0 0 1-.775-.343l-1.738 1.737-2.514-2.514 1.737-1.738A5.913 5.913 0 0 1 3.367 11H1V7h2.367a5.916 5.916 0 0 1 .343-.775L2 4.514 4.514 2l1.71 1.71A5.916 5.916 0 0 1 7 3.367V1h4v2.367a5.913 5.913 0 0 1 .775.343l1.638-1.638 2.515 2.515-1.638 1.638a5.917 5.917 0 0 1 .343.775H17zM9 7a2 2 0 1 0 2 2 2 2 0 0 0-2-2z" fill="none" /></svg>