<svg xmlns="http://www.w3.org/2000/svg" viewBox="0 0 332 267"><path id="tso-accent" d="M248.1 36.1c0-5.5-2.7-8.7-8.1-9.6-2.1-.3-4 0-5.7 1.1l-1-.3c-3.7-.5-7 .3-9.7 2.4-1.7 1.3-2.9 2.9-3.3 4.9-1.5 1.7-2.5 3.6-2.7 5.4l-4-.3-.7 9.1-16.5-13.7-11.6 7.1-.8-.6.3-.9-8.7-6.5.3-.9-9-6.8.1-1-15.5-11.7-15.4 11.7-.2-2.8 1.2-1 .9-1.3c1.3-.4 2.2-.9 2.9-1.5 1.4-1.3 2.3-3.1 2.5-5.2V13c-.1-4.8-2.5-7.4-7.1-7.8-1.7-.3-3.2.2-4.6 1.3l-1-.2c-3.1-.3-5.7.4-7.7 2.3-1.3 1.1-2 2.6-2.5 4.6-1 1-1.7 2.3-2 3.9h-2.3l.3 12.7h.5l.4 12.8-8.1 6.4-4 .6-.7.1C89.2 52 76.1 56.9 65.3 64.5c-11.9 8.3-17.8 18.1-17.8 29.1 0 7 2.4 13.8 7 20.6 2.7 4.2 7.5 9.5 14.2 15.9l-4.2-.6c-2.3 0-4.3.4-6.1 1.3-1.6-1.1-3.5-1.6-5.7-1.7v-6.4H19v15.5h5.5v17.2H65l-9.5 2-11 2.2 3.7 5.4c-7.5.3-14.4 2.4-20.6 6.5-6.6 4.1-11.8 9.7-15.6 16.8-4 7.1-6 14.8-5.9 23.1.1 8.2 2 16 5.9 23.1 3.9 7.1 9.3 12.7 16.2 16.9 6.8 4.1 14.1 6 21.9 6 8.1 0 15.5-2.2 22.2-6.7 3.8-2.5 7.4-5.6 10.7-9.5l.8-.8 18.1 2.6 2.7-16.6 17.4 22.3 16.9 2.5.4-3.5 31.2-.1.2 13.7 31.2-.3v-1.1l27.4-4.1-2.5-16.8 23.4 16.2 16.8-2.5-2-13.7 5.5 3.6c7.4 4.1 15.3 5.3 23.4 3.6 8.3-1.6 15-5.3 20.2-11 3.8-4.2 7.1-10.3 9.9-18.1l3.1-8.7-5.4-2.2-.5-8.2-.6-3.2c-1.4-6.4-3.7-12.1-7-17.3-6.3-9.9-14.6-15.5-25-16.3 3.5-4.4 5.2-9.4 5.2-15.2-.1-8-5.7-16.9-16.8-26.8-2.9-2.3-4.9-4-6-5.2-1.9-2-2.7-3.7-2.5-5.1.5-2.8 6-5.1 16.9-6.9l11-1.8-7.6-15.5 2.8-15.3-6.8-5.6.4-10.7h.4V47c.8-.2 1.4-.6 2-1l.9-1.2c.9-.2 1.6-.5 2-.9 1.3-.9 1.9-2.2 2-3.8v-.3c0-3.3-1.7-5.2-5.1-5.5l-3.7 1.1-.7-.3c-2.2-.1-4.2.4-5.9 1.7-1 .9-1.7 2-1.9 3.3-.9.9-1.4 2-1.5 3.1l-2.8-.1-.2 6.9-11.3-9.3-11.8 9.3.1.8-6.9 5.5.3.8-5.9 4.6.3-3.8.6.2.8-9.8 4.4-3c1.3-.3 2.4-.8 3.2-1.6 2-1.4 3.1-3.4 3.4-6.1l.2-1.5z" stroke="none" /><path id="tso-background" d="M236.4 35.3c-1.2-.9-2.5-1.5-4.2-1.7-4.2-.8-6.5.4-6.8 3.5-.1.6 0 1.3.3 2-1.9 0-2.9.8-3.1 2.4-.3 2 .6 3.1 3 3.5 2.1.3 3.3-.5 3.6-2.5l.1-.7c.2.3.8.4 1.6.7 4.3.5 6.6-.7 7-3.4v-.9l1.3.5c2.2.3 3.4-.6 3.7-2.5.3-1.9-.8-3-3-3.4-2.1-.4-3.3.4-3.5 2.5zm-17.1 14l.7.1-.7 8.1 9.6.8.7-8h.6l.2-1.9-11-1-.1 1.9zm9.4 10.9l-9.6-.9-.3 2.8 9.1 7.2.8-9.1zm10 4.4l-5.9 4.7.9 5.3 25.6-23.1 26.4 24.2.5-5.3-5.9-4.9.2-.8-6.9-5.5.2-.8-7.1-5.5.1-.8-7.6-6.2-7.5 5.9.2.8L245 58l.2.8-6.5 5.2v.6zm13.5 2.5h6.4l.1-6.5-6.5-.2v6.7zm7.9 1.8v6.5h6.6l.1-6.5h-6.7zm0-1.8h6.6l.1-6.5-6.7-.2v6.7zm-1.6 1.8h-6.4v6.5h6.4v-6.5zM170 35.6l-9-6.7.3-.9-9.9-7.5-10 7.6.1.9-9.3 7 .1.8-9.1 7 .3.9-7.9 6.1.8 6.5 34.8-29.8 30.5 26L173 59l.3 1-10.6 6.5.3 1.2-9.5 5.9.8 7.3 41.4-29.3 38.8 36 1.3-7.1L227 73l.3-1-10.2-8.4.2-1.2-10.4-8.5.3-1.1-11.2-9.3-10 6.3-7.6-5.8.2-.9-8.6-6.5v-1zm26.2 28.8l-.5 8.6 9.7.6.6-8.5-9.8-.7zm-11.5-.8l-.5 8.6 9.3.6.6-8.6-9.4-.6zm20.2 20.8l.5-8.4-9.8-.8-.6 8.4 9.9.8zm-11.3-9.1l-9.4-.8-.6 8.4 9.3.6.7-8.2zM167.9 81l-18.4 103h22.3l1.5-2.6 5.7-30.7 10.4 24.5c3.5.8 6.4 2.5 8.5 5.1l12.9-29.6 6.1 33.4h23.7l-18.9-98.8h-5.9L195 129l-20.8-48h-6.3zm86 51.2c6.9 6.3 10.3 10.8 10.3 13.7 0 5.8-7.7 9.9-23.4 12.7l-1.9.4 9.7 13.2.8-.1c25.1-4.3 37.7-13.1 37.7-26.2 0-6-4.8-13.2-14.4-21.7-7.6-6.9-11.6-12.1-11.6-15.9 0-6.3 7.8-10.5 23.4-13.1l1.7-.3-7.1-14.1-1 .1c-10.4 1.5-19.5 4.7-27.2 9.4-8.5 5.4-12.7 11.3-12.7 18 0 6.7 5.2 14.6 15.7 23.9zm34.6-92.8c.2-1.1-.4-1.7-1.7-2-1.3 0-2 .4-2 1.6v.2l-2.3-.9c-2.5-.1-3.7.6-3.8 2.2l.3 1.2c-.9 0-1.4.5-1.7 1.5 0 1.1.5 1.8 1.8 1.9 1.3.1 1.9-.4 2-1.4l.1-.4 1 .3c2.3.3 3.5-.5 3.7-2.2V41l.7.1c1.3 0 1.9-.5 1.9-1.7zm-13.7 14.8l6.4.2v-5.8h.4v-1.5l-7.1-.1v1.4h.6l-.3 5.8zm6 8.2l.2-6.5-6.2-.4-.2 2.2 6.2 4.7zm15.5 128.8l.8 1.6-26.9 5.4.2-1.6c.5-7.6 4.3-12.1 11.3-13.5 6.3-1.2 11.2 1.4 14.6 8.1zm-17.9-20.7c-4.2.9-8 2.5-11 4.6-6.3 4.5-9.9 11-10.9 19.5l-.2 5.5.1 2c.1 2.5.3 4.2.5 5 2.2 10.9 6.5 18.9 12.7 24.4l5 3.4c5.5 3 11.3 3.9 17.3 2.6 6.5-1.3 11.6-4.1 15.4-8.2 3.1-3.3 5.9-8.3 8.2-15.1l.3-.7-13.2-5.1-.3.7c-2.2 8.8-6.2 13.8-12.1 14.9-4 .8-7.7 0-11-2.2s-5.7-5.8-7.1-10.5l-.4-1.3 40.6-8.4-.7-5.1c-.9-4.8-3-9.7-5.9-14.4-6.3-10.3-15.5-14.2-27.3-11.6zm-102.5 20.4c-.1 2.8.9 5.1 3 7.1 2 1.9 4.5 2.9 7.2 2.9 2.9 0 5.3-1 7.1-2.9 2-2 3-4.5 3-7.3s-1-5.2-3.1-7.1c-2-2-4.3-2.9-7.2-2.9s-5.3.9-7.2 3c-1.9 2-2.9 4.4-2.8 7.2zm22.4 6.8l7.8 52.8 13-2-4.2-28.5 37.5 25.9 4.3-.6-7.4-50.5-13.3 2.1 3.7 25.2-36.4-25.1-5 .7zm-25.4 29l-15.3.2-.3-37-13.1.1.3 49.2 28.3-.2.1-12.3zm19.5-20.9h-13.2l.3 46.8 13.4-.2-.5-46.6zM23.9 132.6v-4.1H39v4.1h-4.9v17.2h-5.4v-17.2h-4.8zm23.4-4.3v8.6l.2.2c1-1.6 2.7-2.4 4.9-2.4 3.7 0 5.6 1.9 5.6 5.8v9.3h-5.2v-7.1c0-2.5-.8-3.8-2.4-3.8-2.1 0-3.1 1.5-3.1 4.6v6.4H42v-21.5l5.3-.1zm13.9-16.7c2.5 3.6 7 8.4 13.4 14.6 9.2 8.7 13.8 15.2 13.8 19.3 0 5-3.2 9.1-9.9 12.2-4.4 2.1-11.5 4.2-21.1 5.9l-1.4.3 4.2 6c4.1 1.2 8 3 11.6 5.5l4.8 4c27.1-6.5 40.7-17.8 40.7-34.1 0-5.4-2-10.9-5.9-16.2-2.3-3.1-6.5-7.6-12.7-13.3L88 105c-3.1-4.1-4.8-7.9-4.8-11.5 0-8.8 10.4-14.9 31.1-18.8l1.5-.2-8.7-18.7h-.8C92.8 58 81 62.4 71.2 68.9c-11 7.2-16.5 15.5-16.5 24.6 0 6 2.1 11.9 6.5 18.1zm74.3-101.2c-1.6-.3-2.5.3-2.6 2v.1c-.9-.8-1.9-1.1-3.1-1.1-3.1-.4-4.8.6-5 3.1l.4 1.5c-1.4.1-2.1.8-2.1 2-.3 1.6.5 2.5 2.2 2.7 1.6.1 2.5-.7 2.7-2.2V18l1.3.3c3.1.3 4.8-.7 4.9-3v-.7l.9.3c1.7.3 2.6-.4 2.7-2.1.2-1.6-.6-2.3-2.3-2.4zM122 23.5h-.6v-1.6l9.4-.4v2h-.6l.1 7.1-8.3.3v-7.4zm8.4 11.3l-8 5.7h-.2l-.1-8 8.2-.3v2.6h.1zm-4.2 33.8c-2.5 2.5-3.8 5.4-3.8 9.1 0 3.5 1.3 6.5 3.8 9s5.4 3.7 9.1 3.7c3.5 0 6.5-1.3 8.9-3.7 2.5-2.5 3.7-5.5 3.8-9-.1-3.7-1.4-6.6-3.8-9.1-2.5-2.5-5.4-3.7-8.9-3.7-3.6 0-6.6 1.3-9.1 3.7zM160 46.4h-8v-7.7h8v7.7zm-18.2 1.9h8.3v7.6h-8.3v-7.6zm8.4-2.1h-8.3v-7.6h8.3v7.6zm1.8 2.1h7.8l.2 7.6h-8v-7.6zm-27.8 48.1v80.8l20-.4V96.4h-20zm1.6 94l-3.8 24.8-27.5-35.1-4.8-.8-4.4 29c-.3-4.3-1.3-8.3-2.9-12.2-3-7-7.4-12.7-13.3-16.8-6-4.1-12.6-6-19.4-6-6.5.3-12.4 2-17.8 5.3-5.3 3.2-9.5 7.8-12.7 13.7-3.1 5.7-4.7 12.1-4.6 18.9v.3c-.1 6.7 1.5 13 4.9 18.9 3.3 5.9 7.6 10.5 13.1 13.9 5.5 3.2 11.4 4.8 17.6 4.8 6.5-.1 12.4-1.9 17.6-5.4 5.5-3.6 9.9-8.2 12.9-13.9l1.9-4.2-1 6.5 13 2 4.4-28.3 28.1 35.9 4.3.6 7.6-49.9-13.2-2zM65 144.3c.3 2 1.8 3 4.4 3l4.5-1.1v3.5l-5.4 1.1c-5.7 0-8.7-2.6-8.7-8 0-5.1 2.6-7.7 7.9-7.7 5 0 7.6 2.8 7.6 8.4v.8H65zm5.7-2.9c0-2-.9-3.1-2.8-3.1-1.8 0-2.8 1-2.9 3.1h5.7zm-3.8 80.4c-3.8 7.2-9.5 10.9-16.9 11-3.8 0-7.1-.9-10.1-2.9-2.9-1.7-5.3-4.4-7.3-7.9-1.7-3.1-2.5-6.6-2.8-10.7 0-3.9.9-7.6 2.7-11 3.8-7.1 9.5-10.8 17.2-10.8 7.5-.1 13.2 3.4 17.2 10.6 1.8 3.3 2.6 6.9 2.6 10.8.1 3.9-.8 7.5-2.6 10.9z" stroke="none" /></svg>